PathFileType	4	(X/Y/Z)	KinectSkeleton.trc																																																	
DataRate	CameraRate	NumFrames	NumMarkers	Units	OrigDataRate	OrigDataStartFrame	OrigNumFrames																																													
60	60	16	17	mm	60	434	300																																													
Frame#	Time	Neck			ShoulderMid			R.Shoulder			L.Shoulder			R.Elbow			L.Elbow			R.Wrist			L.Wrist			HipCenter			R.Hip			L.Hip			R.Knee			L.Knee			R.Ankle			L.Ankle			R.Foot			L.Foot		
		X1	Y1	Z1	X2	Y2	Z2	X3	Y3	Z3	X4	Y4	Z4	X5	Y5	Z5	X6	Y6	Z6	X7	Y7	Z7	X8	Y8	Z8	X9	Y9	Z9	X10	Y10	Z10	X11	Y11	Z11	X12	Y12	Z12	X13	Y13	Z13	X14	Y14	Z14	X15	Y15	Z15	X16	Y16	Z16	X17	Y17	Z17
																																																				
434	21.854	-1032.178	285.545	178.717	-1032.178	285.545	178.717	-976.301	255.465	328.66	-1093.881	274.961	22.335	-946.094	206.996	596.281	-1156.564	335.409	-231.722	-839.081	381.184	494.737	-985.492	401.759	-100.795	-662.866	-47.42	92.556	-642.38	-37.627	169.171	-685.585	-58.279	7.592	-264.298	-4.628	85.413	-321.345	9.676	-111.097	-114.794	-348.581	108.39	-182.904	-334.674	-88.376	45.824	-369.299	65.579	-8.567	-358.477	-135.16
435	21.9	-1033.434	286.943	179.482	-1033.434	286.943	179.482	-982.978	257.643	329.4	-1090.797	277.046	22.075	-951.106	201.165	593.242	-1149.585	335.224	-231.424	-838.184	374.705	501.069	-982.469	404.254	-99.535	-671.524	-51.186	100.077	-654.098	-44.402	177.18	-690.847	-58.709	14.571	-279.984	13.1	102.118	-325.879	4.587	-95.042	-125.339	-326.29	110.744	-179.634	-334.254	-85.497	35.796	-343.895	73.508	-5.516	-355.837	-129.025
436	21.947	-1031.543	283.97	175.363	-1031.543	283.97	175.363	-983.538	249.764	325.172	-1085.379	274.766	16.652	-965.008	202.674	591.251	-1138.424	337.486	-236.158	-843.036	369.763	500.432	-972.143	406.224	-104.243	-674.535	-56.215	99.223	-658.64	-50.638	176.501	-692.161	-62.4	13.526	-287.865	27.18	109.816	-326.753	9.84	-84.218	-132.814	-310.83	114.072	-181.801	-328.418	-80.353	28.709	-327.328	80.497	-7.689	-350.917	-121.012
437	21.993	-1032.288	283.399	173.077	-1032.288	283.399	173.077	-986.315	250.565	323.574	-1086.098	277.886	14.673	-970.381	201.267	589.92	-1131.13	339.36	-240.491	-850.045	371.166	501.139	-967.466	409.197	-105.24	-675.697	-58.71	98.538	-660.702	-53.989	176.198	-692.325	-63.946	12.417	-290.908	36.02	115.688	-325.959	16.512	-77.766	-136.797	-303.182	116.76	-182.88	-323.278	-75.431	25.765	-316.84	85.529	-7.878	-343.962	-114.648
438	22.039	-1036.116	284.246	168.343	-1036.116	284.246	168.343	-994.744	249.637	321.646	-1084.84	276.682	5.835	-982.84	199.011	590.768	-1116.254	336.295	-254.602	-852.493	365.438	503.655	-959.886	408.276	-108.499	-678.392	-65.301	99.991	-664.996	-61.538	178.814	-693.248	-69.474	12.579	-294.463	43.637	122.291	-324.637	25.877	-70.561	-140.496	-299.794	121.366	-182.864	-318.529	-68.918	24.448	-311.972	93.106	-5.359	-338.716	-105.565
439	22.088	-1035.581	282.38	167.517	-1035.581	282.38	167.517	-995.057	246.863	321.314	-1084.592	279.461	4.645	-985.936	195.776	591.867	-1111.82	336.151	-258.308	-857.058	363.395	501.864	-956.692	406.618	-108.429	-679.252	-73.369	94.896	-665.762	-70.621	174.155	-694.212	-76.416	7.001	-294.986	43.701	123.75	-324.58	27.637	-70.205	-143.369	-302.811	118.578	-183.781	-319.201	-69.569	22.861	-313.861	92.426	-5.06	-337.417	-105.93
440	22.132	-1035.671	282.366	167.804	-1035.671	282.366	167.804	-993.116	235.182	321.628	-1082.414	278.238	1.575	-990.585	188.034	595.516	-1106.138	335.474	-264.063	-866.645	360.531	502.613	-951.244	406.456	-111.153	-672.676	-68.638	88.442	-660.102	-68.933	168.62	-686.62	-68.31	-0.474	-286.898	53.523	129.425	-312.868	44.064	-62.362	-143.244	-299.714	114.554	-180.045	-309.159	-76.836	23.776	-318.96	88.497	0.007	-335.099	-110.036
441	22.178	-1037.318	283.337	160.007	-1037.318	283.337	160.007	-995.886	234.158	314.906	-1081.895	276.775	-7.912	-1001.039	186.631	589.879	-1095.052	335.241	-275.192	-872.063	359.188	501.62	-947.311	404.118	-113.073	-681.28	-81.628	85.885	-669.059	-81.632	166.464	-694.832	-81.624	-3.475	-296.157	47.281	128.356	-322.205	41.134	-63.015	-149.413	-306.382	112.521	-184.285	-311.895	-75.992	18.691	-324.575	88.04	-3.365	-335.45	-110.569
442	22.225	-1037.366	283.207	158.809	-1037.366	283.207	158.809	-996.829	235.598	313.529	-1082.566	279.046	-7.663	-1005.046	183.171	586.537	-1091.407	333.363	-275.011	-877.565	357.342	501.488	-943.769	402.822	-114.195	-684.884	-83.432	84.652	-672.504	-83.683	164.917	-698.612	-83.154	-4.359	-299.255	40.121	127.727	-326.566	36.822	-63.937	-154.528	-312.823	109.927	-189.138	-314.953	-77.355	13.018	-330.207	85.217	-8.796	-336.336	-112.853
443	22.27	-1035.963	282.706	157.107	-1035.963	282.706	157.107	-997.726	237.708	311.685	-1080.886	280.395	-7.855	-1010.011	182.566	582.402	-1088.921	331.441	-274.304	-882.562	359.642	507.464	-940.21	400.472	-116.15	-688.709	-85.362	84.102	-676.269	-85.83	163.893	-702.504	-84.843	-4.383	-303.44	31.86	126.244	-331.599	30.644	-65.168	-159.732	-319.088	106.882	-194.412	-318.908	-79.257	6.895	-335.607	81.965	-15.171	-338.047	-116.155
444	22.321	-1035.969	282.928	152.617	-1035.969	282.928	152.617	-997.94	237.353	307.226	-1078.791	276.214	-14.475	-1012.552	184.575	578.689	-1083.818	321.601	-282.401	-878.041	355.379	500.618	-942.466	396.161	-119.623	-687.272	-84.853	80.913	-675.297	-84.872	160.889	-700.553	-84.831	-7.778	-301.671	31.446	121.256	-328.987	29.509	-70.197	-162.708	-322.22	107.082	-196.181	-322.44	-79.764	4.083	-341.227	83.47	-16.696	-345.535	-114.414
445	22.395	-1034.561	281.926	151.299	-1034.561	281.926	151.299	-996.634	236.189	305.417	-1078.066	275.789	-14.943	-1012.316	183.54	575.965	-1086.204	316.674	-282.66	-877.605	352.108	495.54	-940.538	386.737	-122.705	-691.281	-88.407	80.851	-679.392	-88.312	160.585	-704.466	-88.512	-7.572	-306.486	26.331	121.428	-333.457	23.435	-69.913	-167.705	-326.155	107.824	-200.408	-327.192	-78.589	-1.412	-345.149	84.485	-21.546	-350.139	-113.509
446	22.441	-1033.487	281.258	148.767	-1033.487	281.258	148.767	-994.51	237.929	302.328	-1078.583	274.255	-16.419	-1010.95	187.87	572.317	-1091.213	314.602	-283.062	-873.628	352.876	491.277	-940.772	380.613	-127.006	-694.422	-91.399	80.432	-682.371	-90.373	159.844	-707.786	-92.537	-7.633	-310.161	21.029	118.767	-337.758	16.24	-72.542	-172.783	-330.696	109.639	-205.546	-333.36	-75.99	-6.992	-349.839	87.231	-27.424	-357.073	-110.736
447	22.487	-1032.362	281.314	147.242	-1032.362	281.314	147.242	-998.92	246.202	301.208	-1075.808	275.807	-16.83	-1008.114	190.188	568.627	-1095.896	312.612	-281.835	-870.814	353.654	488.444	-946.053	377.428	-126.736	-699.068	-92.902	82.169	-686.988	-91.63	161.07	-712.465	-94.313	-5.328	-315.417	11.87	116.636	-343.514	5.432	-76.056	-177.682	-337.233	108.909	-211.543	-341.799	-75.829	-12.42	-352.699	87.598	-34.171	-361.696	-110.852
448	22.533	-1032.296	281.287	147.294	-1032.296	281.287	147.294	-998.763	246.16	301.234	-1075.81	275.785	-16.747	-1007.625	190.088	568.634	-1095.984	312.599	-281.726	-870.35	353.461	488.263	-946.172	377.427	-126.624	-699.049	-92.914	82.174	-686.962	-91.641	161.068	-712.452	-94.326	-5.317	-315.391	11.742	116.582	-343.501	5.27	-76.118	-177.86	-337.416	108.87	-211.782	-342.03	-75.846	-12.621	-352.979	87.54	-34.443	-362.067	-110.892
449	22.578	-1032.295	281.287	147.295	-1032.295	281.287	147.295	-998.762	246.159	301.234	-1075.81	275.785	-16.746	-1007.621	190.087	568.634	-1095.984	312.599	-281.725	-870.347	353.46	488.262	-946.173	377.427	-126.623	-699.049	-92.914	82.174	-686.962	-91.641	161.068	-712.452	-94.326	-5.317	-315.391	11.742	116.582	-343.501	5.269	-76.118	-177.86	-337.416	108.87	-211.783	-342.031	-75.846	-12.622	-352.98	87.54	-34.444	-362.068	-110.892
